<svg  width="221" height="65" viewBox="0 0 221 65" xmlns="http://www.w3.org/2000/svg">
    <path d="M49.32 32.15c-.047-5.238 4.32-7.786 4.52-7.905-2.473-3.58-6.307-4.07-7.654-4.108-3.22-.336-6.344 1.913-7.984 1.913-1.673 0-4.2-1.88-6.92-1.825-3.505.053-6.782 2.067-8.58 5.193-3.71 6.375-.943 15.743 2.612 20.896 1.777 2.524 3.855 5.342 6.574 5.242 2.66-.108 3.654-1.683 6.864-1.683 3.18 0 4.114 1.683 6.887 1.62 2.854-.046 4.65-2.535 6.367-5.08 2.055-2.894 2.88-5.742 2.912-5.89-.068-.022-5.545-2.097-5.6-8.374zm-5.238-15.403c1.43-1.776 2.41-4.192 2.138-6.644-2.07.09-4.66 1.422-6.152 3.16-1.32 1.53-2.498 4.038-2.194 6.398 2.327.173 4.715-1.164 6.208-2.913zM87.82 51.194H84.1l-2.035-6.352h-7.08l-1.94 6.352h-3.618l7.013-21.626h4.33l7.05 21.626zm-6.37-9.017l-1.84-5.647c-.196-.577-.56-1.935-1.1-4.074h-.065c-.214.92-.56 2.278-1.034 4.074l-1.808 5.647h5.85zm24.404 1.03c0 2.65-.722 4.747-2.166 6.286-1.293 1.37-2.9 2.054-4.816 2.054-2.07 0-3.556-.738-4.46-2.214h-.066v8.215h-3.49V40.734c0-1.667-.045-3.38-.13-5.134h3.07l.194 2.472h.066c1.164-1.862 2.93-2.792 5.3-2.792 1.854 0 3.4.727 4.638 2.18 1.24 1.457 1.86 3.37 1.86 5.745zm-3.556.125c0-1.518-.343-2.77-1.034-3.754-.755-1.027-1.768-1.54-3.04-1.54-.86 0-1.642.286-2.34.85-.702.57-1.16 1.31-1.375 2.23-.11.43-.163.78-.163 1.057v2.6c0 1.134.35 2.092 1.05 2.873.702.782 1.612 1.172 2.732 1.172 1.313 0 2.337-.504 3.068-1.508.734-1.006 1.1-2.332 1.1-3.98zm21.624-.127c0 2.653-.722 4.75-2.167 6.288-1.292 1.37-2.898 2.054-4.815 2.054-2.07 0-3.556-.738-4.46-2.214h-.065v8.215h-3.49V40.734c0-1.667-.044-3.38-.13-5.134h3.07l.195 2.472h.066c1.162-1.862 2.928-2.792 5.3-2.792 1.852 0 3.4.727 4.64 2.18 1.236 1.457 1.856 3.37 1.856 5.745zm-3.556.127c0-1.518-.345-2.77-1.036-3.754-.754-1.027-1.765-1.54-3.037-1.54-.862 0-1.643.286-2.344.85-.7.57-1.158 1.31-1.373 2.23-.106.43-.162.78-.162 1.057v2.6c0 1.134.35 2.092 1.048 2.873.7.78 1.61 1.172 2.734 1.172 1.314 0 2.338-.504 3.07-1.508.733-1.006 1.1-2.332 1.1-3.98zm23.757 1.797c0 1.84-.643 3.336-1.935 4.49-1.42 1.264-3.395 1.894-5.934 1.894-2.344 0-4.224-.448-5.646-1.347l.808-2.888c1.533.92 3.214 1.38 5.046 1.38 1.314 0 2.337-.295 3.072-.883.732-.59 1.097-1.378 1.097-2.363 0-.878-.3-1.617-.904-2.217-.6-.6-1.604-1.157-3.006-1.672-3.814-1.412-5.72-3.48-5.72-6.2 0-1.78.67-3.236 2.006-4.37 1.333-1.136 3.11-1.703 5.333-1.703 1.982 0 3.63.343 4.943 1.027l-.872 2.823c-1.227-.663-2.615-.995-4.17-.995-1.227 0-2.186.3-2.873.9-.582.534-.873 1.185-.873 1.957 0 .855.332 1.562 1 2.117.58.514 1.637 1.07 3.17 1.67 1.874.748 3.25 1.624 4.136 2.63.883 1 1.323 2.253 1.323 3.747zm11.54-6.93h-3.847v7.57c0 1.927.677 2.89 2.036 2.89.624 0 1.14-.055 1.55-.162l.097 2.63c-.69.256-1.594.385-2.715.385-1.38 0-2.456-.418-3.233-1.252-.775-.834-1.164-2.235-1.164-4.203v-7.86h-2.292v-2.6h2.292v-2.855l3.428-1.027v3.882h3.847V38.2zm17.357 5.07c0 2.396-.69 4.364-2.07 5.903-1.445 1.584-3.363 2.374-5.755 2.374-2.305 0-4.14-.76-5.51-2.277-1.367-1.518-2.05-3.434-2.05-5.743 0-2.416.702-4.395 2.115-5.934 1.41-1.54 3.312-2.31 5.704-2.31 2.305 0 4.16.758 5.56 2.277 1.338 1.474 2.006 3.377 2.006 5.71zm-3.62.11c0-1.437-.31-2.67-.937-3.7-.732-1.244-1.778-1.865-3.134-1.865-1.404 0-2.47.623-3.2 1.866-.628 1.03-.938 2.284-.938 3.766 0 1.438.31 2.672.937 3.7.754 1.243 1.808 1.864 3.168 1.864 1.333 0 2.38-.634 3.133-1.898.645-1.048.97-2.294.97-3.73zm14.965-4.733a6.104 6.104 0 0 0-1.1-.095c-1.228 0-2.178.46-2.846 1.38-.582.813-.873 1.84-.873 3.08v8.182h-3.49l.034-10.683a84.16 84.16 0 0 0-.13-4.908H179l.128 2.984h.096c.37-1.026.95-1.85 1.746-2.47.777-.558 1.617-.836 2.522-.836.323 0 .614.023.873.064v3.303zm15.61 4.013c0 .62-.042 1.144-.13 1.57h-10.47c.042 1.54.547 2.72 1.52 3.532.882.726 2.023 1.09 3.425 1.09 1.55 0 2.964-.245 4.236-.737l.547 2.405c-1.486.643-3.24.963-5.266.963-2.436 0-4.348-.71-5.74-2.133-1.388-1.422-2.084-3.332-2.084-5.727 0-2.35.647-4.31 1.942-5.87 1.355-1.668 3.187-2.502 5.492-2.502 2.264 0 3.978.835 5.142 2.502.92 1.324 1.384 2.962 1.384 4.908zm-3.33-.9c.024-1.026-.204-1.913-.677-2.662-.604-.964-1.532-1.445-2.78-1.445-1.142 0-2.07.47-2.78 1.412-.58.75-.926 1.648-1.032 2.694h7.27zM80.298 16.266c0 1.912-.578 3.352-1.732 4.32-1.07.89-2.588 1.338-4.556 1.338-.977 0-1.812-.042-2.51-.127v-10.45c.91-.146 1.893-.22 2.954-.22 1.874 0 3.287.403 4.24 1.213 1.067.914 1.603 2.222 1.603 3.925zm-1.81.047c0-1.24-.33-2.19-.99-2.854-.663-.66-1.63-.993-2.9-.993-.54 0-1 .036-1.382.11v7.946c.21.033.597.048 1.16.048 1.312 0 2.325-.363 3.04-1.087.713-.724 1.073-1.78 1.073-3.168zm11.4 1.623c0 1.178-.338 2.144-1.016 2.9-.71.78-1.65 1.168-2.826 1.168-1.133 0-2.035-.373-2.707-1.12-.672-.746-1.007-1.687-1.007-2.82 0-1.187.345-2.16 1.04-2.916.693-.756 1.627-1.135 2.802-1.135 1.133 0 2.043.373 2.732 1.118.655.725.984 1.66.984 2.805zm-1.778.055c0-.706-.155-1.313-.46-1.818-.362-.61-.874-.916-1.54-.916-.69 0-1.213.305-1.573.916-.308.505-.46 1.12-.46 1.85 0 .706.153 1.312.46 1.818.37.61.89.916 1.556.916.655 0 1.17-.31 1.54-.933.317-.515.476-1.126.476-1.833zm14.64-3.822l-2.416 7.66h-1.572l-1-3.326c-.254-.83-.46-1.656-.62-2.475h-.03a18.01 18.01 0 0 1-.622 2.475l-1.062 3.327h-1.59l-2.27-7.662h1.763l.873 3.642c.21.86.385 1.682.524 2.46h.03a27.1 27.1 0 0 1 .638-2.444l1.095-3.656h1.398l1.05 3.578c.253.873.46 1.713.618 2.522h.048c.116-.788.29-1.628.524-2.522l.936-3.578h1.685v-.002zm8.893 7.66h-1.716v-4.387c0-1.35-.517-2.027-1.555-2.027-.51 0-.92.185-1.24.558a1.97 1.97 0 0 0-.476 1.314v4.543h-1.715v-5.47c0-.672-.02-1.402-.062-2.192h1.508l.08 1.198h.048c.2-.372.497-.68.89-.925.464-.286.984-.43 1.554-.43.72 0 1.32.23 1.796.693.592.57.89 1.415.89 2.54v4.59zm4.73 0h-1.713V10.655h1.714V21.83zm10.1-3.893c0 1.178-.338 2.144-1.015 2.9-.71.78-1.654 1.168-2.828 1.168-1.134 0-2.036-.373-2.707-1.12-.67-.746-1.007-1.687-1.007-2.82 0-1.187.345-2.16 1.04-2.916.694-.756 1.627-1.135 2.8-1.135 1.135 0 2.044.373 2.734 1.118.655.725.984 1.66.984 2.805zm-1.78.055c0-.706-.154-1.313-.46-1.818-.358-.61-.872-.916-1.537-.916-.69 0-1.215.305-1.573.916-.308.505-.46 1.12-.46 1.85 0 .706.154 1.312.46 1.818.37.61.89.916 1.557.916.654 0 1.167-.31 1.537-.933.32-.515.476-1.126.476-1.833zm10.084 3.84h-1.54l-.128-.884h-.048c-.527.704-1.28 1.057-2.255 1.057-.728 0-1.317-.233-1.76-.694-.404-.42-.605-.942-.605-1.56 0-.937.393-1.65 1.184-2.145.79-.494 1.898-.736 3.328-.724v-.142c0-1.01-.534-1.513-1.603-1.513-.76 0-1.43.19-2.01.567l-.35-1.118c.717-.44 1.603-.662 2.647-.662 2.017 0 3.03 1.057 3.03 3.17V20c0 .766.037 1.375.11 1.827zm-1.78-2.634v-1.18c-1.893-.034-2.84.48-2.84 1.543 0 .398.11.697.33.897.22.2.502.3.838.3.376 0 .728-.12 1.05-.355a1.45 1.45 0 0 0 .62-1.206zm11.53 2.633h-1.524l-.08-1.23h-.047c-.487.935-1.315 1.403-2.48 1.403-.93 0-1.703-.363-2.317-1.088-.615-.724-.92-1.665-.92-2.82 0-1.24.33-2.245 1-3.012.646-.715 1.438-1.072 2.38-1.072 1.038 0 1.763.347 2.175 1.04h.033v-4.396h1.717v9.11c0 .747.02 1.434.06 2.065zm-1.78-3.232V17.32c0-.22-.015-.4-.046-.535a1.937 1.937 0 0 0-.62-1.032 1.694 1.694 0 0 0-1.147-.418c-.64 0-1.14.252-1.51.757-.365.506-.55 1.15-.55 1.94 0 .756.175 1.37.527 1.843.372.504.873.756 1.5.756.563 0 1.013-.21 1.355-.63.33-.388.493-.856.493-1.402zm16.452-.663c0 1.178-.34 2.144-1.018 2.9-.71.78-1.65 1.168-2.827 1.168-1.13 0-2.033-.373-2.708-1.12-.67-.746-1.007-1.687-1.007-2.82 0-1.187.346-2.16 1.04-2.916.694-.756 1.627-1.135 2.804-1.135 1.13 0 2.043.373 2.73 1.118.656.725.985 1.66.985 2.805zm-1.78.055c0-.706-.153-1.313-.46-1.818-.36-.61-.872-.916-1.54-.916-.687 0-1.21.305-1.573.916-.308.505-.46 1.12-.46 1.85 0 .706.154 1.312.46 1.818.372.61.89.916 1.557.916.655 0 1.17-.31 1.54-.933.316-.515.477-1.126.477-1.833zm11.003 3.84h-1.714v-4.39c0-1.35-.518-2.027-1.558-2.027-.51 0-.92.185-1.237.558a1.96 1.96 0 0 0-.476 1.314v4.543h-1.72v-5.47c0-.672-.018-1.402-.06-2.192h1.507l.08 1.198h.047c.202-.372.5-.68.89-.925a2.92 2.92 0 0 1 1.556-.43c.72 0 1.318.23 1.794.693.595.57.89 1.415.89 2.54v4.59zm11.546-6.386h-1.89v3.72c0 .947.336 1.42 1 1.42.308 0 .564-.026.765-.08l.044 1.292c-.34.127-.785.19-1.333.19-.678 0-1.205-.204-1.587-.614-.383-.41-.573-1.098-.573-2.065v-3.863h-1.128v-1.276h1.127v-1.404l1.682-.503v1.907h1.888v1.277zm9.082 6.385h-1.718v-4.356c0-1.373-.517-2.06-1.553-2.06-.795 0-1.338.397-1.636 1.194-.05.167-.08.372-.08.612v4.607h-1.714V10.654h1.714v4.616h.032c.54-.84 1.315-1.26 2.318-1.26.71 0 1.298.232 1.765.695.58.577.872 1.435.872 2.57v4.554zm9.368-4.194c0 .306-.023.562-.063.772h-5.146c.024.757.27 1.334.746 1.734.436.357.997.536 1.685.536.762 0 1.456-.12 2.08-.362l.27 1.183c-.732.314-1.593.472-2.59.472-1.195 0-2.136-.35-2.817-1.048-.685-.7-1.023-1.637-1.023-2.813 0-1.155.315-2.117.952-2.884.665-.82 1.564-1.228 2.698-1.228 1.11 0 1.953.41 2.523 1.228.46.65.687 1.455.687 2.41zm-1.637-.44c.013-.506-.1-.94-.332-1.308-.297-.473-.75-.71-1.364-.71-.56 0-1.017.23-1.366.693-.284.37-.453.81-.51 1.326h3.573z" fill="#f0f1f2" fill-rule="evenodd" />
</svg>
